# File created by Blade
# Date/Time:  Tue Jan 27 19:00:46 2015
#---------------------------------------------------------
:version 1.10
:name HOM
:units
  mass 1.0
  length 1.000000
  angle deg
:documentation
     Acclaim Skeleton File
:root
   axis xyz
   order TX TY TZ RX RY RZ
   position 0.000000 0.000000 0.000000
   orientation 0 0 0
:bonedata
   begin
      id 1
      name Spine_dum
      direction 0.000000 1.000000 0.000000
      length 5.195262
      axis 0.0 0.0 0.0 xyz
   end
   begin
      id 2
      name LeftUpLeg_dum
      direction 1.000000 0.000000 0.000000
      length 3.351363
      axis 0.0 0.0 0.0 xyz
   end
   begin
      id 3
      name RightUpLeg_dum
      direction -1.000000 0.000000 0.000000
      length 3.351363
      axis 0.0 0.0 0.0 xyz
   end
   begin
      id 4
      name Spine
      direction 0.000000 1.000000 0.000000
      length 0.000000
      axis 0.0 0.0 0.0 xyz
      dof rx ry rz
   end
   begin
      id 5
      name Spine_dum1
      direction 0.000000 1.000000 0.000000
      length 15.653875
      axis 0.0 0.0 0.0 xyz
   end
   begin
      id 6
      name Spine_dum2
      direction 0.000000 1.000000 0.000000
      length 10.329768
      axis 0.0 0.0 0.0 xyz
   end
   begin
      id 7
      name Spine_dum3
      direction 0.000000 1.000000 0.000000
      length 10.329768
      axis 0.0 0.0 0.0 xyz
   end
   begin
      id 8
      name Head
      direction 0.000000 1.000000 0.000000
      length 4.527550
      axis 0.0 0.0 0.0 xyz
      dof rx ry rz
   end
   begin
      id 9
      name LeftShoulder
      direction 1.000000 0.000000 0.000000
      length 6.996006
      axis 0.0 0.0 -90.0 xyz
      dof rx ry rz
   end
   begin
      id 10
      name LeftArm
      direction 1.000000 0.000000 0.000000
      length 10.209302
      axis 0.0 0.0 -90.0 xyz
      dof rx ry rz
   end
   begin
      id 11
      name LeftForeArm
      direction 1.000000 0.000000 0.000000
      length 8.563163
      axis 0.0 0.0 -90.0 xyz
      dof ry rz rx
   end
   begin
      id 12
      name LeftHand
      direction 0.000000 0.000000 0.000000
      length 0.000000
      axis 0.0 0.0 -90.0 xyz
      dof rx ry rz
   end
   begin
      id 13
      name LeftHand_dum1
      direction 0.000000 0.000000 0.000000
      length 0.000000
      axis 0.0 0.0 -90.0 xyz
   end
   begin
      id 14
      name LeftHand_dum2
      direction 1.000000 0.000000 0.000000
      length 3.937000
      axis 0.0 0.0 -90.0 xyz
   end
   begin
      id 15
      name LeftHandThumb1
      direction 0.000000 0.000000 1.000000
      length 3.937000
      axis 0.0 0.0 -90.0 xyz
      dof rx rz ry
   end
   begin
      id 16
      name RightShoulder
      direction -1.000000 0.000000 0.000000
      length 6.996006
      axis 0.0 0.0 90.0 xyz
      dof rx ry rz
   end
   begin
      id 17
      name RightArm
      direction -1.000000 0.000000 0.000000
      length 10.209302
      axis 0.0 0.0 90.0 xyz
      dof rx ry rz
   end
   begin
      id 18
      name RightForeArm
      direction -1.000000 0.000000 0.000000
      length 8.563163
      axis 0.0 0.0 90.0 xyz
      dof ry rz rx
   end
   begin
      id 19
      name RightHand
      direction 0.000000 0.000000 0.000000
      length 0.000000
      axis 0.0 0.0 90.0 xyz
      dof rx ry rz
   end
   begin
      id 20
      name RightHand_dum1
      direction 0.000000 0.000000 0.000000
      length 0.000000
      axis 0.0 0.0 90.0 xyz
   end
   begin
      id 21
      name RightHand_dum2
      direction -1.000000 0.000000 0.000000
      length 3.937000
      axis 0.0 0.0 90.0 xyz
   end
   begin
      id 22
      name RightHandThumb1
      direction 0.000000 0.000000 1.000000
      length 3.937000
      axis 0.0 0.0 90.0 xyz
      dof rx rz ry
   end
   begin
      id 23
      name LeftUpLeg
      direction 0.000000 -1.000000 0.000000
      length 16.346831
      axis 0.0 0.0 0.0 xyz
      dof rx ry rz
   end
   begin
      id 24
      name LeftLeg
      direction 0.000000 -1.000000 0.000000
      length 13.959795
      axis 0.0 0.0 0.0 xyz
      dof rx ry rz
   end
   begin
      id 25
      name LeftFoot
      direction 0.000000 -0.258819 0.965926
      length 5.165550
      axis 15.0 0.0 0.0 xyz
      dof rx ry rz
   end
   begin
      id 26
      name LeftToeBase
      direction 0.000000 0.000000 1.000000
      length 2.952750
      axis 0.0 0.0 0.0 xyz
      dof rx ry rz
   end
   begin
      id 27
      name RightUpLeg
      direction 0.000000 -1.000000 0.000000
      length 16.346831
      axis 0.0 0.0 0.0 xyz
      dof rx ry rz
   end
   begin
      id 28
      name RightLeg
      direction 0.000000 -1.000000 0.000000
      length 13.959795
      axis 0.0 0.0 0.0 xyz
      dof rx ry rz
   end
   begin
      id 29
      name RightFoot
      direction 0.000000 -0.258819 0.965926
      length 5.165550
      axis 15.0 0.0 0.0 xyz
      dof rx ry rz
   end
   begin
      id 30
      name RightToeBase
      direction 0.000000 0.000000 1.000000
      length 2.952750
      axis 0.0 0.0 0.0 xyz
      dof rx ry rz
   end
:hierarchy
   begin
      root Spine_dum LeftUpLeg_dum RightUpLeg_dum
      Spine_dum Spine
      LeftUpLeg_dum LeftUpLeg
      RightUpLeg_dum RightUpLeg
      Spine Spine_dum1 Spine_dum2 Spine_dum3
      Spine_dum1 Head
      Spine_dum2 LeftShoulder
      Spine_dum3 RightShoulder
      LeftShoulder LeftArm
      LeftArm LeftForeArm
      LeftForeArm LeftHand
      LeftHand LeftHand_dum1 LeftHand_dum2
      LeftHand_dum1 LeftHandThumb1
      RightShoulder RightArm
      RightArm RightForeArm
      RightForeArm RightHand
      RightHand RightHand_dum1 RightHand_dum2
      RightHand_dum1 RightHandThumb1
      LeftUpLeg LeftLeg
      LeftLeg LeftFoot
      LeftFoot LeftToeBase
      RightUpLeg RightLeg
      RightLeg RightFoot
      RightFoot RightToeBase
   end

# File created by Blade
# Date/Time:  Tue Jan 27 19:00:36 2015
# Frame Rate: 120.000 fps
#------------------------------------------------------
:FULLY-SPECIFIED
:DEGREES
800
root -2.855834 31.729254 -4.087630 6.300073 38.791853 0.453588
Spine -2.178951 -7.690266 -5.562433
Head 26.371907 5.274146 5.014577
LeftShoulder -16.469110 10.861780 15.689861
LeftArm 29.475920 -27.002330 -75.411697
LeftForeArm -11.331576 -0.000000 69.384827
LeftHand -7.016602 -0.000000 21.511139
LeftHandThumb1 -26.253704 0.000000 33.147579
RightShoulder -11.911284 -3.665227 -10.627805
RightArm 4.110617 -32.830508 88.368843
RightForeArm -24.040624 -0.000000 24.767987
RightHand -15.405345 -0.000000 9.299231
RightHandThumb1 -24.326973 -0.000000 -32.862282
LeftUpLeg -8.263856 -23.016728 -4.282766
LeftLeg 17.448513 -0.000000 -0.000000
LeftFoot -21.529704 14.341621 -12.877062
LeftToeBase 8.391543 -0.000000 -0.000000
RightUpLeg -45.124526 -7.757643 18.760264
RightLeg 73.161409 -0.000000 -0.000000
RightFoot -7.340373 3.451354 29.554246
RightToeBase 10.139645 -0.000000 -0.000000
801
root -2.868976 31.739690 -4.083408 6.132769 39.203242 0.277760
Spine -2.116730 -7.915158 -5.453309
Head 26.621031 4.908674 5.177993
LeftShoulder -16.367886 10.859481 15.750268
LeftArm 29.454400 -26.876489 -75.325450
LeftForeArm -11.394550 -0.000000 69.359735
LeftHand -7.004127 -0.000000 21.580063
LeftHandThumb1 -26.253704 0.000000 33.147579
RightShoulder -11.994195 -3.611432 -10.597554
RightArm 3.981085 -32.756978 88.453613
RightForeArm -24.069176 -0.000000 24.804506
RightHand -15.443413 -0.000000 9.310715
RightHandThumb1 -24.326973 -0.000000 -32.862282
LeftUpLeg -8.258606 -23.201947 -4.109991
LeftLeg 17.509095 -0.000000 -0.000000
LeftFoot -21.447904 14.274801 -12.666918
LeftToeBase 8.178315 -0.000000 -0.000000
RightUpLeg -44.776713 -6.075957 17.270914
RightLeg 72.044711 -0.000000 -0.000000
RightFoot -7.172641 3.780619 29.178284
RightToeBase 10.260651 -0.000000 -0.000000
802
root -2.882059 31.748717 -4.076006 5.931718 39.633528 0.083601
Spine -2.027142 -8.178054 -5.331629
Head 26.840365 4.561798 5.328789
LeftShoulder -16.301150 10.858794 15.793093
LeftArm 29.430152 -26.734931 -75.208607
LeftForeArm -11.485991 0.000000 69.350606
LeftHand -7.014415 -0.000000 21.684615
LeftHandThumb1 -26.253704 0.000000 33.147579
RightShoulder -12.073372 -3.609257 -10.555533
RightArm 3.937654 -32.722177 88.500270
RightForeArm -24.091426 0.000000 24.796874
RightHand -15.343289 0.000000 9.353436
RightHandThumb1 -24.326973 -0.000000 -32.862282
LeftUpLeg -8.221218 -23.435122 -3.922561
LeftLeg 17.546964 -0.000000 -0.000000
LeftFoot -21.374268 14.061045 -12.664127
LeftToeBase 7.991131 -0.000000 -0.000000
RightUpLeg -44.427359 -4.393710 15.790951
RightLeg 70.986049 -0.000000 -0.000000
RightFoot -7.061630 3.992098 28.376037
RightToeBase 9.105313 -0.000000 -0.000000
803
root -2.894318 31.759040 -4.067164 5.733464 40.058359 -0.117364
Spine -1.965882 -8.426515 -5.199544
Head 27.080865 4.190758 5.454555
LeftShoulder -16.272136 10.801382 15.816032
LeftArm 29.409960 -26.525398 -75.064209
LeftForeArm -11.583661 -0.000000 69.291178
LeftHand -6.975735 -0.000000 21.757630
LeftHandThumb1 -26.253704 0.000000 33.147579
RightShoulder -12.159058 -3.687884 -10.514829
RightArm 3.951629 -32.653986 88.525058
RightForeArm -24.150457 -0.000000 24.810763
RightHand -15.340450 0.000000 9.360445
RightHandThumb1 -24.326973 -0.000000 -32.862282
LeftUpLeg -8.189150 -23.661519 -3.732108
LeftLeg 17.602240 -0.000000 -0.000000
LeftFoot -21.340489 13.954233 -12.631668
LeftToeBase 7.990982 -0.000000 -0.000000
RightUpLeg -44.120074 -2.672457 14.284388
RightLeg 69.954718 -0.000000 -0.000000
RightFoot -6.889605 4.195718 28.355536
RightToeBase 8.077733 -0.000000 -0.000000
